<svg width="48" height="36" viewBox="0 0 48 36" fill="none" xmlns="http://www.w3.org/2000/svg">
<g clip-path="url(#clip0_140_2245)">
<path d="M9.47828 28V12.684L8.91828 9.856L9.47828 8.176H16.1983C17.5609 8.176 18.7836 8.39067 19.8663 8.82C20.9676 9.23067 21.8356 9.94 22.4703 10.948C23.1236 11.9373 23.4503 13.3093 23.4503 15.064C23.4503 16.8187 23.1049 18.2093 22.4143 19.236C21.7236 20.244 20.7623 20.9627 19.5303 21.392C18.3169 21.8213 16.9263 22.036 15.3583 22.036H13.3983V23.492L13.6783 26.292L13.3983 28H9.47828ZM13.3983 18.48H16.1423C17.3743 18.48 18.2143 18.1627 18.6623 17.528C19.1103 16.8747 19.3343 16.0533 19.3343 15.064C19.3343 14.0187 19.0916 13.216 18.6063 12.656C18.1396 12.096 17.2809 11.816 16.0303 11.816H13.1183L13.3983 18.48Z" fill="#2196F3"/>
<path d="M26.24 28V12.684L25.68 9.856L26.24 8.176H32.96C34.3227 8.176 35.5453 8.39067 36.628 8.82C37.7293 9.23067 38.5973 9.94 39.232 10.948C39.8853 11.9373 40.212 13.3093 40.212 15.064C40.212 16.8187 39.8667 18.2093 39.176 19.236C38.4853 20.244 37.524 20.9627 36.292 21.392C35.0787 21.8213 33.688 22.036 32.12 22.036H30.16V23.492L30.44 26.292L30.16 28H26.24ZM30.16 18.48H32.904C34.136 18.48 34.976 18.1627 35.424 17.528C35.872 16.8747 36.096 16.0533 36.096 15.064C36.096 14.0187 35.8533 13.216 35.368 12.656C34.9013 12.096 34.0427 11.816 32.792 11.816H29.88L30.16 18.48Z" fill="#C0C0C0"/>
</g>
<defs>
<clipPath id="clip0_140_2245">
<rect width="48" height="36" fill="white"/>
</clipPath>
</defs>
</svg>
